<svg width="102" height="39" viewBox="0 0 102 39" fill="none" xmlns="http://www.w3.org/2000/svg">
<path d="M33.014 16.7954C32.9544 16.2916 32.7124 15.9005 32.2882 15.6221C31.8639 15.3437 31.3436 15.2045 30.7271 15.2045C30.2763 15.2045 29.8819 15.2774 29.5439 15.4232C29.2091 15.5691 28.9473 15.7696 28.7583 16.0248C28.5727 16.28 28.4799 16.57 28.4799 16.8948C28.4799 17.1666 28.5446 17.4003 28.6738 17.5958C28.8064 17.7881 28.9754 17.9488 29.1809 18.0781C29.3864 18.204 29.6019 18.3084 29.8272 18.3913C30.0526 18.4708 30.2598 18.5355 30.4487 18.5852L31.4828 18.8636C31.7479 18.9332 32.0429 19.0293 32.3677 19.1519C32.6958 19.2746 33.0091 19.4419 33.3074 19.6541C33.609 19.8629 33.8575 20.1313 34.0531 20.4595C34.2486 20.7876 34.3464 21.1903 34.3464 21.6676C34.3464 22.2177 34.2022 22.7149 33.9139 23.159C33.6288 23.6032 33.2112 23.9561 32.661 24.218C32.1142 24.4798 31.4496 24.6107 30.6674 24.6107C29.9383 24.6107 29.3069 24.4931 28.7733 24.2578C28.243 24.0224 27.8253 23.6943 27.5204 23.2734C27.2188 22.8525 27.0481 22.3636 27.0083 21.8068H28.2811C28.3142 22.1912 28.4435 22.5094 28.6689 22.7613C28.8975 23.0099 29.1859 23.1955 29.5339 23.3181C29.8852 23.4374 30.2631 23.4971 30.6674 23.4971C31.1381 23.4971 31.5607 23.4209 31.9352 23.2684C32.3097 23.1126 32.6064 22.8972 32.8251 22.6221C33.0439 22.3437 33.1532 22.0189 33.1532 21.6477C33.1532 21.3096 33.0588 21.0345 32.8699 20.8224C32.6809 20.6103 32.4324 20.4379 32.1241 20.3053C31.8159 20.1728 31.4828 20.0568 31.1248 19.9573L29.872 19.5994C29.0765 19.3707 28.4468 19.0442 27.9828 18.62C27.5188 18.1957 27.2868 17.6406 27.2868 16.9545C27.2868 16.3844 27.4409 15.8873 27.7491 15.463C28.0607 15.0355 28.4783 14.704 29.002 14.4687C29.5289 14.2301 30.1172 14.1107 30.7669 14.1107C31.4231 14.1107 32.0065 14.2284 32.5169 14.4637C33.0273 14.6957 33.4316 15.0139 33.7299 15.4183C34.0315 15.8226 34.1906 16.2817 34.2072 16.7954H33.014ZM36.2145 24.4318V16.7954H37.3878V24.4318H36.2145ZM36.8111 15.5227C36.5824 15.5227 36.3852 15.4448 36.2195 15.289C36.0571 15.1332 35.9759 14.946 35.9759 14.7272C35.9759 14.5085 36.0571 14.3212 36.2195 14.1654C36.3852 14.0097 36.5824 13.9318 36.8111 13.9318C37.0398 13.9318 37.2353 14.0097 37.3977 14.1654C37.5634 14.3212 37.6463 14.5085 37.6463 14.7272C37.6463 14.946 37.5634 15.1332 37.3977 15.289C37.2353 15.4448 37.0398 15.5227 36.8111 15.5227ZM42.6191 27.4545C42.0524 27.4545 41.5652 27.3816 41.1575 27.2357C40.7498 27.0932 40.4101 26.9043 40.1383 26.669C39.8699 26.437 39.6561 26.1884 39.497 25.9232L40.4316 25.267C40.5377 25.4062 40.6719 25.5653 40.8343 25.7443C40.9967 25.9266 41.2188 26.084 41.5005 26.2166C41.7856 26.3525 42.1584 26.4204 42.6191 26.4204C43.2356 26.4204 43.7444 26.2713 44.1454 25.973C44.5465 25.6747 44.747 25.2073 44.747 24.571V23.0198H44.6475C44.5614 23.159 44.4387 23.3314 44.2797 23.5369C44.1239 23.7391 43.8985 23.9197 43.6035 24.0788C43.3118 24.2346 42.9174 24.3124 42.4203 24.3124C41.8038 24.3124 41.2503 24.1666 40.7598 23.8749C40.2725 23.5833 39.8864 23.159 39.6014 22.6022C39.3197 22.0454 39.1788 21.3693 39.1788 20.5738C39.1788 19.7916 39.3163 19.1105 39.5914 18.5305C39.8665 17.9472 40.2493 17.4964 40.7399 17.1782C41.2304 16.8567 41.7972 16.696 42.4402 16.696C42.9373 16.696 43.3317 16.7788 43.6234 16.9445C43.9184 17.107 44.1438 17.2926 44.2995 17.5014C44.4586 17.7069 44.5813 17.8759 44.6674 18.0085H44.7868V16.7954H45.9203V24.6505C45.9203 25.3068 45.7711 25.8404 45.4728 26.2514C45.1779 26.6657 44.7801 26.9689 44.2797 27.1612C43.7825 27.3567 43.229 27.4545 42.6191 27.4545ZM42.5794 23.2585C43.05 23.2585 43.4477 23.1507 43.7725 22.9353C44.0974 22.7199 44.3443 22.41 44.5133 22.0056C44.6824 21.6013 44.7669 21.1174 44.7669 20.5539C44.7669 20.0037 44.684 19.5182 44.5183 19.0972C44.3526 18.6763 44.1073 18.3465 43.7825 18.1079C43.4577 17.8693 43.0566 17.7499 42.5794 17.7499C42.0822 17.7499 41.6679 17.8759 41.3365 18.1278C41.0083 18.3797 40.7614 18.7177 40.5957 19.142C40.4333 19.5662 40.3521 20.0369 40.3521 20.5539C40.3521 21.0842 40.435 21.5532 40.6007 21.9609C40.7697 22.3652 41.0183 22.6834 41.3464 22.9154C41.6779 23.1441 42.0888 23.2585 42.5794 23.2585ZM49.2413 19.838V24.4318H48.068V16.7954H49.2015V17.9886H49.301C49.4799 17.6008 49.7517 17.2892 50.1163 17.0539C50.4809 16.8153 50.9515 16.696 51.5282 16.696C52.0453 16.696 52.4977 16.802 52.8855 17.0141C53.2733 17.223 53.5749 17.5411 53.7903 17.9687C54.0057 18.3929 54.1135 18.9299 54.1135 19.5795V24.4318H52.9402V19.659C52.9402 19.0591 52.7844 18.5918 52.4728 18.257C52.1613 17.919 51.7337 17.7499 51.1902 17.7499C50.8156 17.7499 50.4809 17.8311 50.1859 17.9936C49.8942 18.156 49.6639 18.3929 49.4949 18.7045C49.3258 19.016 49.2413 19.3939 49.2413 19.838ZM65.0075 21.3096V16.7954H66.1808V24.4318H65.0075V23.1391H64.9279C64.7489 23.5269 64.4705 23.8567 64.0927 24.1285C63.7148 24.397 63.2376 24.5312 62.6609 24.5312C62.1836 24.5312 61.7594 24.4268 61.3881 24.218C61.0169 24.0059 60.7253 23.6877 60.5131 23.2634C60.301 22.8359 60.195 22.2973 60.195 21.6477V16.7954H61.3683V21.5681C61.3683 22.1249 61.524 22.5691 61.8356 22.9005C62.1504 23.232 62.5515 23.3977 63.0387 23.3977C63.3304 23.3977 63.627 23.3231 63.9286 23.174C64.2335 23.0248 64.4888 22.7961 64.6942 22.4879C64.9031 22.1796 65.0075 21.7869 65.0075 21.3096ZM68.3297 27.2954V16.7954H69.4632V18.0085H69.6025C69.6886 17.8759 69.8079 17.7069 69.9604 17.5014C70.1162 17.2926 70.3382 17.107 70.6266 16.9445C70.9183 16.7788 71.3127 16.696 71.8098 16.696C72.4528 16.696 73.0196 16.8567 73.5101 17.1782C74.0007 17.4997 74.3835 17.9554 74.6586 18.5454C74.9337 19.1354 75.0712 19.8314 75.0712 20.6335C75.0712 21.4422 74.9337 22.1432 74.6586 22.7365C74.3835 23.3264 74.0023 23.7838 73.5151 24.1086C73.0279 24.4301 72.4661 24.5909 71.8297 24.5909C71.3392 24.5909 70.9464 24.5097 70.6515 24.3472C70.3565 24.1815 70.1294 23.9943 69.9703 23.7855C69.8113 23.5733 69.6886 23.3977 69.6025 23.2585H69.503V27.2954H68.3297ZM69.4831 20.6136C69.4831 21.1903 69.5676 21.699 69.7367 22.1399C69.9057 22.5774 70.1526 22.9204 70.4775 23.169C70.8023 23.4142 71.2 23.5369 71.6706 23.5369C72.1612 23.5369 72.5705 23.4076 72.8986 23.1491C73.2301 22.8873 73.4786 22.5359 73.6444 22.0951C73.8134 21.651 73.8979 21.1571 73.8979 20.6136C73.8979 20.0766 73.815 19.5927 73.6493 19.1619C73.4869 18.7277 73.24 18.3847 72.9086 18.1328C72.5804 17.8775 72.1678 17.7499 71.6706 17.7499C71.1934 17.7499 70.7923 17.8709 70.4675 18.1129C70.1427 18.3515 69.8974 18.6863 69.7317 19.1171C69.566 19.5447 69.4831 20.0435 69.4831 20.6136Z" fill="white"/>
<rect x="1" y="1.43176" width="100" height="36" rx="18" stroke="white" stroke-width="2"/>
</svg>
